<svg aria-hidden="true" style="position: absolute; width: 0; height: 0; overflow: hidden;" version="1.1" xmlns="http://www.w3.org/2000/svg" xmlns:xlink="http://www.w3.org/1999/xlink">
<defs>
<symbol id="icon-twitter" viewBox="0 0 32 32">
<path fill="#1da1f2" style="fill: var(--color1, #1da1f2)" d="M31.939 6.092c-1.18 0.519-2.44 0.872-3.767 1.033 1.352-0.815 2.392-2.099 2.884-3.631-1.268 0.74-2.673 1.279-4.169 1.579-1.195-1.279-2.897-2.079-4.788-2.079-3.623 0-6.56 2.937-6.56 6.556 0 0.52 0.060 1.020 0.169 1.499-5.453-0.257-10.287-2.876-13.521-6.835-0.569 0.963-0.888 2.081-0.888 3.3 0 2.28 1.16 4.284 2.917 5.461-1.076-0.035-2.088-0.331-2.971-0.821v0.081c0 3.18 2.257 5.832 5.261 6.436-0.551 0.148-1.132 0.228-1.728 0.228-0.419 0-0.82-0.040-1.221-0.115 0.841 2.604 3.26 4.503 6.139 4.556-2.24 1.759-5.079 2.807-8.136 2.807-0.52 0-1.039-0.031-1.56-0.089 2.919 1.859 6.357 2.945 10.076 2.945 12.072 0 18.665-9.995 18.665-18.648 0-0.279 0-0.56-0.020-0.84 1.281-0.919 2.4-2.080 3.28-3.397z"></path>
</symbol>
<symbol id="icon-instagram-with-circle" viewBox="0 0 20 20">
<path d="M13 10c0 1.657-1.343 3-3 3s-3-1.343-3-3c0-0.171 0.018-0.338 0.049-0.5h-1.049v3.997c0 0.278 0.225 0.503 0.503 0.503h6.995c0.277 0 0.502-0.225 0.502-0.503v-3.997h-1.049c0.031 0.162 0.049 0.329 0.049 0.5zM10 12c1.104 0 2-0.896 2-2s-0.896-2-2-2-2 0.896-2 2 0.896 2 2 2zM12.4 7.9h1.199c0.166 0 0.301-0.135 0.301-0.3v-1.199c0-0.166-0.135-0.301-0.301-0.301h-1.199c-0.166 0-0.301 0.135-0.301 0.301v1.199c0.001 0.165 0.136 0.3 0.301 0.3zM10 0.4c-5.302 0-9.6 4.298-9.6 9.6s4.298 9.6 9.6 9.6c5.302 0 9.6-4.298 9.6-9.6s-4.298-9.6-9.6-9.6zM15 13.889c0 0.611-0.5 1.111-1.111 1.111h-7.778c-0.611 0-1.111-0.5-1.111-1.111v-7.778c0-0.611 0.5-1.111 1.111-1.111h7.778c0.611 0 1.111 0.5 1.111 1.111v7.778z"></path>
</symbol>
<symbol id="icon-linkedin-with-circle" viewBox="0 0 20 20">
<path d="M10 0.4c-5.302 0-9.6 4.298-9.6 9.6s4.298 9.6 9.6 9.6 9.6-4.298 9.6-9.6-4.298-9.6-9.6-9.6zM7.65 13.979h-1.944v-6.256h1.944v6.256zM6.666 6.955c-0.614 0-1.011-0.435-1.011-0.973 0-0.549 0.409-0.971 1.036-0.971s1.011 0.422 1.023 0.971c0 0.538-0.396 0.973-1.048 0.973zM14.75 13.979h-1.944v-3.467c0-0.807-0.282-1.355-0.985-1.355-0.537 0-0.856 0.371-0.997 0.728-0.052 0.127-0.065 0.307-0.065 0.486v3.607h-1.945v-4.26c0-0.781-0.025-1.434-0.051-1.996h1.689l0.089 0.869h0.039c0.256-0.408 0.883-1.010 1.932-1.010 1.279 0 2.238 0.857 2.238 2.699v3.699z"></path>
</symbol>
<symbol id="icon-facebook" viewBox="0 0 24 24">
<path d="M21.984 12q0-2.063-0.773-3.867t-2.156-3.188-3.188-2.156-3.867-0.773-3.867 0.773-3.188 2.156-2.156 3.188-0.773 3.867q0 1.828 0.586 3.445t1.688 2.93 2.555 2.203 3.141 1.219v-6.797h-1.969v-3h1.969v-2.484q0-0.984 0.492-1.781t1.266-1.266 1.758-0.469h2.484v3h-1.969q-0.422 0-0.727 0.305t-0.305 0.68v2.016h3v3h-3v6.938q1.922-0.188 3.563-1.031t2.859-2.18 1.898-3.047 0.68-3.68z"></path>
</symbol>
<symbol id="icon-mail2" viewBox="0 0 24 24">
<path d="M20 0h-16c-2.2 0-4 1.8-4 4.001v15.999c0 2.202 1.8 4 4 4h16c2.2 0 4-1.799 4-4.001v-15.999c0-2.2-1.8-4.001-4-4.001zM20 3c0.187 0 0.364 0.055 0.516 0.149l-8.516 7.041-8.516-7.041c0.152-0.094 0.329-0.149 0.517-0.149h16zM4 21c-0.045 0-0.090-0.003-0.133-0.010l5.288-7.335-0.686-0.686-5.47 5.47v-14.324l9 10.884 9-10.884v14.323l-5.47-5.47-0.686 0.686 5.288 7.335c-0.044 0.006-0.088 0.010-0.133 0.010h-16z"></path>
</symbol>
<symbol id="icon-phone" viewBox="0 0 32 32">
<path d="M22 20c-2 2-2 4-4 4s-4-2-6-4-4-4-4-6 2-2 4-4-4-8-6-8-6 6-6 6c0 4 4.109 12.109 8 16s12 8 16 8c0 0 6-4 6-6s-6-8-8-6z"></path>
</symbol>
<symbol id="icon-mail2" viewBox="0 0 32 32">
<path d="M26.667 0h-21.333c-2.934 0-5.334 2.4-5.334 5.334v21.332c0 2.936 2.4 5.334 5.334 5.334h21.333c2.934 0 5.333-2.398 5.333-5.334v-21.332c0-2.934-2.399-5.334-5.333-5.334zM26.667 4c0.25 0 0.486 0.073 0.688 0.198l-11.355 9.388-11.355-9.387c0.202-0.125 0.439-0.198 0.689-0.198h21.333zM5.334 28c-0.060 0-0.119-0.005-0.178-0.013l7.051-9.78-0.914-0.914-7.293 7.293v-19.098l12 14.512 12-14.512v19.098l-7.293-7.293-0.914 0.914 7.051 9.78c-0.058 0.008-0.117 0.013-0.177 0.013h-21.333z"></path>
</symbol>
<symbol id="icon-instagram" viewBox="0 0 32 32">
<path d="M16 2.881c4.275 0 4.781 0.019 6.462 0.094 1.563 0.069 2.406 0.331 2.969 0.55 0.744 0.288 1.281 0.638 1.837 1.194 0.563 0.563 0.906 1.094 1.2 1.838 0.219 0.563 0.481 1.412 0.55 2.969 0.075 1.688 0.094 2.194 0.094 6.463s-0.019 4.781-0.094 6.463c-0.069 1.563-0.331 2.406-0.55 2.969-0.288 0.744-0.637 1.281-1.194 1.837-0.563 0.563-1.094 0.906-1.837 1.2-0.563 0.219-1.413 0.481-2.969 0.55-1.688 0.075-2.194 0.094-6.463 0.094s-4.781-0.019-6.463-0.094c-1.563-0.069-2.406-0.331-2.969-0.55-0.744-0.288-1.281-0.637-1.838-1.194-0.563-0.563-0.906-1.094-1.2-1.837-0.219-0.563-0.481-1.413-0.55-2.969-0.075-1.688-0.094-2.194-0.094-6.463s0.019-4.781 0.094-6.463c0.069-1.563 0.331-2.406 0.55-2.969 0.288-0.744 0.638-1.281 1.194-1.838 0.563-0.563 1.094-0.906 1.838-1.2 0.563-0.219 1.412-0.481 2.969-0.55 1.681-0.075 2.188-0.094 6.463-0.094zM16 0c-4.344 0-4.887 0.019-6.594 0.094-1.7 0.075-2.869 0.35-3.881 0.744-1.056 0.412-1.95 0.956-2.837 1.85-0.894 0.888-1.438 1.781-1.85 2.831-0.394 1.019-0.669 2.181-0.744 3.881-0.075 1.713-0.094 2.256-0.094 6.6s0.019 4.887 0.094 6.594c0.075 1.7 0.35 2.869 0.744 3.881 0.413 1.056 0.956 1.95 1.85 2.837 0.887 0.887 1.781 1.438 2.831 1.844 1.019 0.394 2.181 0.669 3.881 0.744 1.706 0.075 2.25 0.094 6.594 0.094s4.888-0.019 6.594-0.094c1.7-0.075 2.869-0.35 3.881-0.744 1.050-0.406 1.944-0.956 2.831-1.844s1.438-1.781 1.844-2.831c0.394-1.019 0.669-2.181 0.744-3.881 0.075-1.706 0.094-2.25 0.094-6.594s-0.019-4.887-0.094-6.594c-0.075-1.7-0.35-2.869-0.744-3.881-0.394-1.063-0.938-1.956-1.831-2.844-0.887-0.887-1.781-1.438-2.831-1.844-1.019-0.394-2.181-0.669-3.881-0.744-1.712-0.081-2.256-0.1-6.6-0.1v0z"></path>
<path d="M16 7.781c-4.537 0-8.219 3.681-8.219 8.219s3.681 8.219 8.219 8.219 8.219-3.681 8.219-8.219c0-4.537-3.681-8.219-8.219-8.219zM16 21.331c-2.944 0-5.331-2.387-5.331-5.331s2.387-5.331 5.331-5.331c2.944 0 5.331 2.387 5.331 5.331s-2.387 5.331-5.331 5.331z"></path>
<path d="M26.462 7.456c0 1.060-0.859 1.919-1.919 1.919s-1.919-0.859-1.919-1.919c0-1.060 0.859-1.919 1.919-1.919s1.919 0.859 1.919 1.919z"></path>
</symbol>
<symbol id="icon-twitter1" viewBox="0 0 32 32">
<path d="M32 7.075c-1.175 0.525-2.444 0.875-3.769 1.031 1.356-0.813 2.394-2.1 2.887-3.631-1.269 0.75-2.675 1.3-4.169 1.594-1.2-1.275-2.906-2.069-4.794-2.069-3.625 0-6.563 2.938-6.563 6.563 0 0.512 0.056 1.012 0.169 1.494-5.456-0.275-10.294-2.888-13.531-6.862-0.563 0.969-0.887 2.1-0.887 3.3 0 2.275 1.156 4.287 2.919 5.463-1.075-0.031-2.087-0.331-2.975-0.819 0 0.025 0 0.056 0 0.081 0 3.181 2.263 5.838 5.269 6.437-0.55 0.15-1.131 0.231-1.731 0.231-0.425 0-0.831-0.044-1.237-0.119 0.838 2.606 3.263 4.506 6.131 4.563-2.25 1.762-5.075 2.813-8.156 2.813-0.531 0-1.050-0.031-1.569-0.094 2.913 1.869 6.362 2.95 10.069 2.95 12.075 0 18.681-10.006 18.681-18.681 0-0.287-0.006-0.569-0.019-0.85 1.281-0.919 2.394-2.075 3.275-3.394z"></path>
</symbol>
</defs>
</svg>
