<?xml version="1.0" encoding="utf-8"?>
<!-- Generator: Adobe Illustrator 26.0.3, SVG Export Plug-In . SVG Version: 6.00 Build 0)  -->
<svg version="1.0" id="katman_1" xmlns="http://www.w3.org/2000/svg" xmlns:xlink="http://www.w3.org/1999/xlink" x="0px" y="0px"
	 viewBox="0 0 600 450" style="enable-background:new 0 0 600 450;" xml:space="preserve">
<style type="text/css">
	.st0{fill:#010202;}
</style>
<path class="st0" d="M326.9,347v-1.7l-0.9-0.9c-4.3,1.7-7.8-0.9-12.1-1.7c-7.8-2.6-15.5-6-22.4-9.5c-8.6-4.3-16.4-10.4-24.2-15.5
	c-4.3-2.6-8.6-5.2-11.2-8.6c-3.5-3.5-8.6-4.3-10.4-9.5c-4.3-0.9-5.2-6-8.6-8.6l-13-13c-2.6-2.6-5.2-5.2-6.9-7.8
	c-4.3-6-8.6-11.2-13-17.3c-2.6-4.3-3.5-8.6-6-13l-5.2-7.8c-0.9-1.7-1.7-3.5-1.7-5.2c-0.9-3.5-1.7-6-2.6-8.6
	c-1.7-4.3-3.5-9.5-5.2-13.8c-1.7-4.3-3.5-9.5-5.2-13.8c-1.7-3.5-0.9-4.3,2.6-5.2c-1.7-2.6-1.7-2.6-5.2-0.9
	c-0.9-3.5-2.6-6.9-3.5-10.4c-0.9-6.9-1.7-13.8-2.6-19.9c0-1.7,1.7-3.5,2.6-5.2c-0.9,0-2.6,0-4.3-0.9c1.7-5.2-4.3-10.4,0.9-15.5
	c-3.5-0.9-2.6-4.3-2.6-6.9s0-5.2,0.9-7.8c0-1.7-0.9-2.6,0-4.3c1.7-5.2,2.6-10.4,6.9-13.8c1.7-0.9,3.5-1.7,4.3-2.6s0.9-1.7,0.9-2.6
	c1.7-0.9,2.6-2.6,4.3-3.5c6-1.7,12.1-5.2,19-3.5c3.5,0.9,7.8,0,13,0l-4.3,4.3h3.5c0.9-5.2,5.2-4.3,8.6-5.2c10.4-1.7,19,0.9,28.5,5.2
	c4.3,1.7,7.8,5.2,8.6,10.4c0.9,5.2,4.3,9.5,4.3,14.7c0.9,6,2.6,11.2,2.6,17.3c0,6,1.7,11.2,1.7,17.3c0,6-0.9,13-1.7,19
	c0,0.9-1.7,2.6-1.7,3.5c-4.3,6.9-9.5,13.8-15.5,19.9c-2.6,2.6-5.2,6-8.6,8.6c-2.6,1.7-3.5,6.9-2.6,9.5c0.9,1.7,2.6,3.5,4.3,6
	c1.7,1.7,4.3,3.5,3.5,6.9c0,0.9,2.6,1.7,3.5,3.5c1.7,2.6,2.6,5.2,4.3,8.6c0,0.9,0.9,0.9,0.9,1.7c7.8,5.2,13,12.1,18.1,19.9
	c1.7,1.7,3.5,3.5,6,5.2c1.7,0.9,2.6,1.7,4.3,3.5c2.6,1.7,5.2,3.5,6.9,5.2c1.7,0.9,2.6,2.6,3.5,4.3l5.2,5.2c4.3,2.6,7.8,4.3,12.1,6
	c0.9,0.9,1.7,0.9,2.6,1.7c1.7,2.6,4.3,0.9,5.2,0c5.2-5.2,10.4-10.4,14.7-15.5c0.9-0.9,0.9-0.9,1.7-0.9c2.6-1.7,4.3-4.3,6-6.9
	c1.7-1.7,4.3-3.5,6-5.2c0.9,0,2.6,1.7,3.5,2.6c0.9-0.9,3.5-0.9,4.3-3.5c0.9-0.9,4.3-0.9,6-1.7h9.5c6,0.9,12.1,1.7,18.1,3.5
	c1.7,0,3.5,1.7,6,2.6c3.5-2.6,14.7-0.9,19,2.6c0-0.9,0.9-0.9,0.9-1.7c1.7,0.9,3.5,2.6,5.2,3.5c1.7,1.7,3.5,5.2,5.2,6.9
	c3.5,2.6,4.3,6,6,10.4c2.6,5.2,3.5,11.2,2.6,17.3v25.9c0,5.2,0,10.4-0.9,15.5c-0.9,6-3.5,10.4-9.5,13c-4.3,1.7-8.6,4.3-13.8,5.2
	c-6,0.9-12.1,0.9-18.1,0.9c-3.5,0-6.9,0-10.4-0.9c-2.6-0.9-6-1.7-8.6-1.7h-2.6c-0.9,0-1.7,0.9-1.7,0c-4.3-2.6-8.6-1.7-13-3.5
	c-2.6-0.9-6-1.7-8.6-2.6h-2.6c-5.2-0.9-9.5-1.7-14.7-3.5C331.2,347.9,329.5,347.9,326.9,347z M252.6,163.1c0-0.9-1.7-0.9-1.7-2.6
	c0-5.2,0-10.4-0.9-15.5c-0.9-4.3,0.9-9.5,0-13.8c-2.6-6.9-3.5-13.8-4.3-20.7c0-1.7-5.2-5.2-6.9-5.2c-9.5,0-19.9,0-29.4,0.9
	c-3.5,0-6.9-0.9-11.2,0c-3.5,0.9-6.9,0-8.6,2.6c-4.3,5.2-6.9,10.4-6,16.4l2.6,20.7c1.7,8.6,3.5,17.3,5.2,25c0,1.7,2.6,3.5,0.9,6v0.9
	c0.9,2.6,4.3,5.2,1.7,8.6c0,0,0.9,0.9,0.9,1.7c1.7,2.6,3.5,5.2,3.5,8.6c0,6,3.5,11.2,5.2,17.3c1.7,6,6,12.1,9.5,17.3
	c1.7,3.5,4.3,6.9,6,10.4c5.2,5.2,10.4,11.2,14.7,16.4c2.6,3.5,4.3,6.9,6.9,9.5c5.2,5.2,11.2,10.4,16.4,14.7
	c4.3,4.3,9.5,8.6,13.8,12.1c3.5,3.5,6.9,6.9,10.4,9.5c6.9,4.3,13.8,8.6,20.7,12.1c9.5,5.2,19,8.6,29.4,13c5.2,2.6,10.4,4.3,16.4,5.2
	c5.2,1.7,11.2,1.7,16.4,2.6c1.7,0,3.5,0,5.2,0.9c6.9,1.7,13,3.5,19.9,4.3c7.8,0.9,15.5,3.5,24.2,0c1.7-0.9,3.5-1.7,4.3-2.6
	c0.9-0.9,0.9-1.7,1.7-1.7c2.6-2.6,4.3-4.3,3.5-8.6c-0.9-2.6-0.9-5.2-0.9-7.8c0.9-7.8,0.9-15.5-1.7-23.3c-1.7-4.3-2.6-9.5-4.3-13.8
	c-0.9-1.7-1.7-3.5-5.2-3.5c-1.7,0-3.5-1.7-6.9-3.5l-1.7,1.7c-1.7-0.9-4.3-1.7-6-1.7c-3.5-0.9-6-0.9-9.5-1.7
	c-5.2,0-10.4-2.6-15.5-0.9c-0.9,0-1.7,0-1.7-0.9c-2.6-1.7-4.3-0.9-5.2,0.9c-2.6,0.9-5.2,0-6,1.7c-2.6,1.7-5.2,5.2-7.8,7.8
	c-6,5.2-11.2,11.2-18.1,15.5c-2.6,1.7-6.9,2.6-6.9,7.8l-0.9,0.9c-4.3,1.7-8.6,0.9-13-1.7c-2.6-1.7-6-3.5-8.6-5.2
	c-5.2-3.5-11.2-6.9-16.4-10.4c-3.5-1.7-6-4.3-8.6-6.9c-5.2-5.2-11.2-9.5-16.4-14.7c-1.7-1.7-3.5-4.3-5.2-6.9l-8.6-8.6
	c-3.5-4.3-5.2-9.5-10.4-13c0,0,0-0.9-0.9-0.9c-4.3-3.5-3.5-10.4-8.6-13.8c-0.9,0-0.9-1.7-0.9-2.6s-0.9-1.7-0.9-2.6l-2.6-5.2
	c0-0.9,0-1.7-0.9-1.7c-4.3-1.7-3.5-6-4.3-8.6c0.9-1.7,1.7-2.6,2.6-4.3c0.9-0.9,0.9-2.6,1.7-3.5c4.3-2.6,7.8-5.2,10.4-9.5
	c1.7-1.7,3.5-4.3,5.2-5.2c4.3-2.6,6.9-7.8,10.4-11.2c0.9,0,0.9-0.9,0.9-1.7C250,167.4,250.9,165.7,252.6,163.1z"/>
</svg>
