<?xml version="1.0" encoding="utf-8"?>
<!-- Generator: Adobe Illustrator 26.0.3, SVG Export Plug-In . SVG Version: 6.00 Build 0)  -->
<svg version="1.0" id="katman_1" xmlns="http://www.w3.org/2000/svg" xmlns:xlink="http://www.w3.org/1999/xlink" x="0px" y="0px"
	 viewBox="0 0 600 450" style="enable-background:new 0 0 600 450;" xml:space="preserve">
<style type="text/css">
	.st0{fill-rule:evenodd;clip-rule:evenodd;fill:#010202;}
</style>
<path class="st0" d="M184.2,188.2c0-63.8,52-115.6,115.9-115.6s115.7,51.9,116,115.6c0,19.6-3.1,33-11.4,49.4
	c-8.2,16.1-79.4,108.2-93.6,126.5l-11,14.1l-11-14.1c-14.2-18.3-85.3-110.4-93.5-126.5C187.3,221.2,184.2,207.8,184.2,188.2z
	 M300.1,332.9c32-41.6,74.9-98.5,79.7-107.9c6.3-12.5,8.3-21.5,8.3-37c0-48.5-39.5-87.8-88-87.8s-88.1,39.5-88.1,87.9
	c0,15.4,2.1,24.4,8.4,36.9C225.2,234.5,268,291.3,300.1,332.9z M249.5,185.1c0-27.8,22.7-50.6,50.6-50.6c27.8,0,50.6,22.7,50.6,50.6
	c0,27.8-22.7,50.6-50.6,50.6C272.2,235.6,249.5,212.9,249.5,185.1z M277.2,185.1c0,12.6,10.2,22.8,22.8,22.8
	c12.5,0,22.8-10.2,22.8-22.8c0-12.6-10.2-22.8-22.8-22.8C287.4,162.2,277.2,172.4,277.2,185.1z"/>
</svg>
